<?xml version="1.0" encoding="UTF-8"?>
<svg width="21px" height="24px" viewBox="0 0 21 24" version="1.1" xmlns="http://www.w3.org/2000/svg" xmlns:xlink="http://www.w3.org/1999/xlink">
    <!-- Generator: sketchtool 59.1 (101010) - https://sketch.com -->
    <title>757E3593-B7EB-4F21-BFD8-2D0DF65E70D4</title>
    <desc>Created with sketchtool.</desc>
    <g id="Page-1" stroke="none" stroke-width="1" fill="none" fill-rule="evenodd">
        <g id="Groups" transform="translate(-62.000000, -745.000000)" fill="#969CA7">
            <g id="Group-3" transform="translate(0.000000, 699.000000)">
                <path d="M75.2716491,68 C75.2716491,69.1045695 74.3762186,70 73.2716491,70 L71.2716491,70 C70.1670796,70 69.2716491,69.1045695 69.2716491,68 L75.2716491,68 Z M74.2716491,46 C78.1376423,46 81.2716491,49.1340068 81.2716491,53 L81.2716491,59.499472 C82.6242187,60.6744608 82.9596338,62.6909934 81.980036,64.2583499 C81.3028753,65.3418071 80.1153323,66 78.8376679,66 L65.7056302,66 C63.6590671,66 62,64.3409329 62,62.2943698 C62,61.2970633 62.4013684,60.351494 63.1141715,59.6502172 L63.2716491,59.5037529 L63.2716491,53 C63.2716491,49.1340068 66.4056558,46 70.2716491,46 L74.2716491,46 Z M74.2716491,48 L70.2716491,48 C67.5102253,48 65.2716491,50.2385763 65.2716491,53 L65.2716491,60.5320781 L64.704435,60.9134864 C64.2625931,61.2336912 64,61.7471612 64,62.2943698 C64,63.2363634 64.7636366,64 65.7056302,64 L78.8376679,64 C79.4257522,64 79.9723554,63.6970465 80.2840394,63.198352 C80.783295,62.3995431 80.540459,61.3472539 79.7416501,60.8479983 L79.2716491,60.5542476 L79.2716491,53 C79.2716491,50.2385763 77.0330728,48 74.2716491,48 Z" id="Combined-Shape"></path>
            </g>
        </g>
    </g>
</svg>