<?xml version="1.0" encoding="UTF-8"?>
<svg width="24px" height="20px" viewBox="0 0 24 20" version="1.1" xmlns="http://www.w3.org/2000/svg" xmlns:xlink="http://www.w3.org/1999/xlink">
    <!-- Generator: sketchtool 59.1 (101010) - https://sketch.com -->
    <title>9AFF1B20-A695-4F09-BB9E-1D8BCA5AC635</title>
    <desc>Created with sketchtool.</desc>
    <g id="Page-1" stroke="none" stroke-width="1" fill="none" fill-rule="evenodd">
        <g id="Groups" transform="translate(-176.000000, -747.000000)" fill="#E63946">
            <g id="Group-3" transform="translate(0.000000, 699.000000)">
                <path d="M184,48 C186.761424,48 189,50.2385763 189,53 C189,54.4808123 188.356267,55.8112727 187.333376,56.7268057 C188.551325,57.2842922 189.605178,58.1406052 190.401559,59.2012957 C190.620307,59.0343373 190.852527,58.8834846 191.095087,58.7489579 C190.416395,58.0332137 190,57.065234 190,56 C190,53.790861 191.790861,52 194,52 C196.209139,52 198,53.790861 198,56 C198,57.0647454 197.583987,58.0323256 196.905636,58.7490645 C198.750762,59.7722762 200,61.7402506 200,64 L199.99994,65.00006 C199.999907,65.5523213 199.552201,66 198.99994,66 C198.447688,66 198,65.5523116 198,65.00006 L198,64 C198,61.790861 196.209139,60 194,60 C193.008158,60 192.100631,60.3609947 191.40164,60.9587624 C191.787377,61.8966686 192,62.9235039 192,64 L192,67 C192,67.5522847 191.552285,68 191,68 C190.447715,68 190,67.5522847 190,67 L190,64 C190,60.6862915 187.313708,58 184,58 C180.686292,58 178,60.6862915 178,64 L178,67 C178,67.5522847 177.552285,68 177,68 C176.447715,68 176,67.5522847 176,67 L176,64 C176,60.7711229 177.912885,57.989024 180.667224,56.7251339 C179.643733,55.8112727 179,54.4808123 179,53 C179,50.2385763 181.238576,48 184,48 Z M194,54 C192.895431,54 192,54.8954305 192,56 C192,57.1045695 192.895431,58 194,58 C195.104569,58 196,57.1045695 196,56 C196,54.8954305 195.104569,54 194,54 Z M184,50 C182.343146,50 181,51.3431458 181,53 C181,54.6568542 182.343146,56 184,56 C185.656854,56 187,54.6568542 187,53 C187,51.3431458 185.656854,50 184,50 Z" id="Combined-Shape"></path>
            </g>
        </g>
    </g>
</svg>