<?xml version="1.0" encoding="UTF-8"?>
<svg width="24px" height="24px" viewBox="0 0 24 24" version="1.1" xmlns="http://www.w3.org/2000/svg" xmlns:xlink="http://www.w3.org/1999/xlink">
    <!-- Generator: sketchtool 59.1 (101010) - https://sketch.com -->
    <title>ACDCEB40-D24B-4253-8FC3-8E0D23E6CAA2</title>
    <desc>Created with sketchtool.</desc>
    <g id="Page-1" stroke="none" stroke-width="1" fill="none" fill-rule="evenodd">
        <g id="Events" transform="translate(-291.000000, -745.000000)" fill="#E63946">
            <g id="Group-3" transform="translate(0.000000, 699.000000)">
                <path d="M309,46 C309.552285,46 310,46.4477153 310,47 L310,48 L311,48 C313.209139,48 315,49.790861 315,52 L315,66 C315,68.209139 313.209139,70 311,70 L295,70 C292.790861,70 291,68.209139 291,66 L291,52 C291,49.790861 292.790861,48 295,48 L296,48 L296,47 C296,46.4477153 296.447715,46 297,46 C297.552285,46 298,46.4477153 298,47 L298,48 L302,48 L302,47 C302,46.4477153 302.447715,46 303,46 C303.552285,46 304,46.4477153 304,47 L304,48 L308,48 L308,47 C308,46.4477153 308.447715,46 309,46 Z M296,50 L295,50 C293.895431,50 293,50.8954305 293,52 L293,66 C293,67.1045695 293.895431,68 295,68 L311,68 C312.104569,68 313,67.1045695 313,66 L313,52 C313,50.8954305 312.104569,50 311,50 L310,50 L310,51 C310,51.5522847 309.552285,52 309,52 C308.447715,52 308,51.5522847 308,51 L308,50 L304,50 L304,51 C304,51.5522847 303.552285,52 303,52 C302.447715,52 302,51.5522847 302,51 L302,50 L298,50 L298,51 C298,51.5522847 297.552285,52 297,52 C296.447715,52 296,51.5522847 296,51 L296,50 Z M297,63 C297.552285,63 298,63.4477153 298,64 C298,64.5522847 297.552285,65 297,65 C296.447715,65 296,64.5522847 296,64 C296,63.4477153 296.447715,63 297,63 Z M301,63 C301.552285,63 302,63.4477153 302,64 C302,64.5522847 301.552285,65 301,65 C300.447715,65 300,64.5522847 300,64 C300,63.4477153 300.447715,63 301,63 Z M305,63 C305.552285,63 306,63.4477153 306,64 C306,64.5522847 305.552285,65 305,65 C304.447715,65 304,64.5522847 304,64 C304,63.4477153 304.447715,63 305,63 Z M297,59 C297.552285,59 298,59.4477153 298,60 C298,60.5522847 297.552285,61 297,61 C296.447715,61 296,60.5522847 296,60 C296,59.4477153 296.447715,59 297,59 Z M309,59 C309.552285,59 310,59.4477153 310,60 C310,60.5522847 309.552285,61 309,61 C308.447715,61 308,60.5522847 308,60 C308,59.4477153 308.447715,59 309,59 Z M301,59 C301.552285,59 302,59.4477153 302,60 C302,60.5522847 301.552285,61 301,61 C300.447715,61 300,60.5522847 300,60 C300,59.4477153 300.447715,59 301,59 Z M305,59 C305.552285,59 306,59.4477153 306,60 C306,60.5522847 305.552285,61 305,61 C304.447715,61 304,60.5522847 304,60 C304,59.4477153 304.447715,59 305,59 Z M309,55 C309.552285,55 310,55.4477153 310,56 C310,56.5522847 309.552285,57 309,57 C308.447715,57 308,56.5522847 308,56 C308,55.4477153 308.447715,55 309,55 Z M301,55 C301.552285,55 302,55.4477153 302,56 C302,56.5522847 301.552285,57 301,57 C300.447715,57 300,56.5522847 300,56 C300,55.4477153 300.447715,55 301,55 Z M305,55 C305.552285,55 306,55.4477153 306,56 C306,56.5522847 305.552285,57 305,57 C304.447715,57 304,56.5522847 304,56 C304,55.4477153 304.447715,55 305,55 Z" id="Combined-Shape"></path>
            </g>
        </g>
    </g>
</svg>