<?xml version="1.0" encoding="UTF-8"?>
<svg width="20px" height="20px" viewBox="0 0 20 20" version="1.1" xmlns="http://www.w3.org/2000/svg" xmlns:xlink="http://www.w3.org/1999/xlink">
    <!-- Generator: sketchtool 59.1 (101010) - https://sketch.com -->
    <title>E7FDA774-7088-415D-900D-CF86C91A3EBA</title>
    <desc>Created with sketchtool.</desc>
    <g id="Page-1" stroke="none" stroke-width="1" fill="none" fill-rule="evenodd">
        <g id="Event" transform="translate(-340.000000, -140.000000)" fill="#FFFFFF" fill-rule="nonzero">
            <g id="Group-4" transform="translate(325.000000, 115.000000)">
                <path d="M25,25 C30.5228475,25 35,29.4771525 35,35 C35,40.5228475 30.5228475,45 25,45 C19.4771525,45 15,40.5228475 15,35 C15,29.4771525 19.4771525,25 25,25 Z M29.0129518,32 C28.7603306,32 28.5077094,32.0970297 28.3152831,32.290099 L24.0128284,36.6069307 L21.6849636,34.270297 C21.4915505,34.0772277 21.2389293,33.980198 20.9863081,33.980198 C20.7346737,33.980198 20.4820525,34.0772277 20.2886394,34.270297 C19.9037869,34.6564356 19.9037869,35.2841584 20.2886394,35.670297 L23.2944369,38.6861386 C23.5036388,38.9039604 23.75626,39 24.0088812,39 C24.2703836,39 24.522018,38.9039604 24.7154311,38.7108911 C24.7223387,38.7039604 29.7106205,33.690099 29.7106205,33.690099 C30.0964598,33.3039604 30.0964598,32.6762376 29.7106205,32.290099 C29.5181942,32.0970297 29.265573,32 29.0129518,32 Z" id="Combined-Shape"></path>
            </g>
        </g>
    </g>
</svg>