<?xml version="1.0" encoding="UTF-8"?>
<svg width="146px" height="70px" viewBox="0 0 146 70" version="1.1" xmlns="http://www.w3.org/2000/svg" xmlns:xlink="http://www.w3.org/1999/xlink">
    <!-- Generator: Sketch 59.1 (86144) - https://sketch.com -->
    <title>Combined Shape</title>
    <desc>Created with Sketch.</desc>
    <g id="Page-1" stroke="none" stroke-width="1" fill="none" fill-rule="evenodd">
        <g id="Signin" transform="translate(-118.000000, -119.000000)" fill="#14213D" fill-rule="nonzero">
            <path d="M232.258,138.164 L241.3,155.522 L250.078,138.164 L263.806,138.164 L236.614,188.918 L223.216,188.918 L234.766,167.402 L218.398,138.164 L232.258,138.164 Z M194.687,128.722 L194.688,172.022 L182.742,172.022 L182.741,135.754 L194.687,128.722 Z M211.204,119 L211.204,138.164 L218.002,138.164 L218.002,148.13 L211.204,148.13 L211.204,172.022 L199.258,172.022 L199.258,126.032 L211.204,119 Z M129.537,137.854 L136.53,158.518 L143.775,137.854 L153.981,137.854 L161.037,158.707 L168.173,138.163 L178.65,138.164 L178.703,138.131 L166.644,172 L155.052,172 L148.626,153.415 L141.948,172 L130.356,172 L118.197,137.854 L129.537,137.854 Z" id="Combined-Shape"></path>
        </g>
    </g>
</svg>