<?xml version="1.0" encoding="UTF-8"?>
<svg width="18px" height="20px" viewBox="0 0 18 20" version="1.1" xmlns="http://www.w3.org/2000/svg" xmlns:xlink="http://www.w3.org/1999/xlink">
    <!-- Generator: sketchtool 59.1 (101010) - https://sketch.com -->
    <title>0672AD6C-6D6D-4485-8B24-1A2023C45F6B</title>
    <desc>Created with sketchtool.</desc>
    <g id="Page-1" stroke="none" stroke-width="1" fill="none" fill-rule="evenodd">
        <g id="Chat" transform="translate(-303.000000, -55.000000)" fill="#969CA7">
            <g id="Group-5" transform="translate(303.000000, 55.000000)">
                <path d="M11.7781746,18 C11.7781746,19.1045695 10.8827441,20 9.77817459,20 L7.77817459,20 C6.67360509,20 5.77817459,19.1045695 5.77817459,18 L11.7781746,18 Z M1.70710678,1.51471863 L17.263456,17.0710678 C17.6539803,17.4615921 17.6539803,18.0947571 17.263456,18.4852814 C16.8729317,18.8758057 16.2397667,18.8758057 15.8492424,18.4852814 L0.292893219,2.92893219 C-0.0976310729,2.5384079 -0.0976310729,1.90524292 0.292893219,1.51471863 C0.683417511,1.12419433 1.31658249,1.12419433 1.70710678,1.51471863 Z M1.76817459,7.232 L3.76817459,9.232 L3.7685654,11.6583043 L3.06755357,12.3269262 C2.88154884,12.5148988 2.77817459,12.7664095 2.77817459,13.0354958 C2.77817459,13.5800062 3.18705114,14 3.66420833,14 L8.53517459,14 L10.5351746,16 L3.66420833,16 C2.07029591,16 0.778174593,14.6727463 0.778174593,13.0354958 C0.778174593,12.2376506 1.09076992,11.4811952 1.64591807,10.9201737 L1.7685654,10.8030023 L1.76817459,7.232 Z M10.3356294,0 C13.3465578,0 15.7873975,2.5072054 15.7873975,5.6 L15.7873975,10.7995776 C16.5955979,11.5207578 16.9374972,12.6382224 16.708332,13.6856532 L13.7871746,10.766 L13.7873975,5.6 C13.7873975,3.59994546 12.2298026,2 10.3356294,2 L7.22033343,2 C6.59582294,2 6.00789939,2.17391832 5.50032323,2.47875359 L4.05916022,1.03698288 C4.95078301,0.384064033 6.04189396,0 7.22033343,0 L10.3356294,0 Z" id="Combined-Shape"></path>
            </g>
        </g>
    </g>
</svg>