<?xml version="1.0" encoding="UTF-8"?>
<svg width="20px" height="18px" viewBox="0 0 20 18" version="1.1" xmlns="http://www.w3.org/2000/svg" xmlns:xlink="http://www.w3.org/1999/xlink">
    <!-- Generator: sketchtool 59.1 (101010) - https://sketch.com -->
    <title>8B1C7D4F-C6E4-432C-AFC9-2350F69FDBFE</title>
    <desc>Created with sketchtool.</desc>
    <g id="Page-1" stroke="none" stroke-width="1" fill="none" fill-rule="evenodd">
        <g id="Event" transform="translate(-340.000000, -210.000000)" fill="#FFFFFF" fill-rule="nonzero">
            <g id="Group-4" transform="translate(325.000000, 115.000000)">
                <path d="M17.9289322,95.2928932 L33.4852814,110.849242 C33.8758057,111.239767 33.8758057,111.872932 33.4852814,112.263456 C33.0947571,112.65398 32.4615921,112.65398 32.0710678,112.263456 L16.5147186,96.7071068 C16.1241943,96.3165825 16.1241943,95.6834175 16.5147186,95.2928932 C16.9052429,94.9023689 17.5384079,94.9023689 17.9289322,95.2928932 Z M17.961,100.982175 L19.39,102.411175 L17.5509937,103.778175 L21.236141,106.514985 C22.2983566,107.30385 23.5194282,107.723229 24.7505468,107.773122 L26.5975977,109.620453 C24.3591327,110.06647 21.9906208,109.566527 20.0436971,108.120625 L15.4609011,104.717166 C14.9720992,104.354153 14.8532236,103.639471 15.1953849,103.12088 C15.2677129,103.011258 15.3575754,102.915919 15.4609011,102.839183 L17.961,100.982175 Z M29.9563029,99.4357244 L34.5390989,102.839183 C35.0279008,103.202197 35.1467764,103.916878 34.8046151,104.435469 C34.7322871,104.545091 34.6424246,104.64043 34.5390989,104.717166 L32.038,106.573175 L30.609,105.144175 L32.4490063,103.778175 L28.763859,101.041364 C27.7013554,100.252285 26.4799096,99.8328927 25.2484518,99.7831869 L23.4014054,97.9360947 C25.640164,97.4897311 28.0090902,97.9896077 29.9563029,99.4357244 Z" id="Combined-Shape"></path>
            </g>
        </g>
    </g>
</svg>