<?xml version="1.0" encoding="UTF-8"?>
<svg width="32px" height="26px" viewBox="0 0 32 26" version="1.1" xmlns="http://www.w3.org/2000/svg" xmlns:xlink="http://www.w3.org/1999/xlink">
    <!-- Generator: sketchtool 59.1 (101010) - https://sketch.com -->
    <title>3CF41E71-8713-44A9-AC6A-2F954943AA6D</title>
    <desc>Created with sketchtool.</desc>
    <g id="Page-1" stroke="none" stroke-width="1" fill="none" fill-rule="evenodd">
        <g id="Settings" transform="translate(-172.000000, -192.000000)" fill="#FFFFFF" fill-rule="nonzero">
            <path d="M192,192 C194.369417,192 196.498248,193.004323 197.963108,194.600171 L198.666667,194.6 C201.612185,194.6 204,196.928119 204,199.8 L204,212.8 C204,215.671881 201.612185,218 198.666667,218 L177.333333,218 C174.387815,218 172,215.671881 172,212.8 L172,199.8 C172,196.928119 174.387815,194.6 177.333333,194.6 L178.036892,194.600171 C179.501752,193.004323 181.630583,192 184,192 L192,192 Z M192,194 L184,194 C182.257287,194 180.642291,194.719388 179.510281,195.952623 L178.915688,196.600385 L177.333333,196.6 C175.48121,196.6 174,198.04418 174,199.8 L174,212.8 C174,214.55582 175.48121,216 177.333333,216 L198.666667,216 C200.51879,216 202,214.55582 202,212.8 L202,199.8 C202,198.04418 200.51879,196.6 198.667153,196.6 L197.084312,196.600385 L196.489719,195.952623 C195.357709,194.719388 193.742713,194 192,194 Z M188,201 C188.552285,201 189,201.447715 189,202 L189,205 L192,205 C192.552285,205 193,205.447715 193,206 C193,206.552285 192.552285,207 192,207 L189,207 L189,210 C189,210.552285 188.552285,211 188,211 C187.447715,211 187,210.552285 187,210 L187,206.999 L184,207 C183.447715,207 183,206.552285 183,206 C183,205.447715 183.447715,205 184,205 L187,204.999 L187,202 C187,201.447715 187.447715,201 188,201 Z M198,200 C198.552285,200 199,200.447715 199,201 C199,201.552285 198.552285,202 198,202 C197.447715,202 197,201.552285 197,201 C197,200.447715 197.447715,200 198,200 Z" id="Combined-Shape"></path>
        </g>
    </g>
</svg>