<?xml version="1.0" encoding="UTF-8"?>
<svg width="32px" height="26px" viewBox="0 0 32 26" version="1.1" xmlns="http://www.w3.org/2000/svg" xmlns:xlink="http://www.w3.org/1999/xlink">
    <!-- Generator: sketchtool 59.1 (101010) - https://sketch.com -->
    <title>ADC88F73-117C-4244-9906-1EF302400AEC</title>
    <desc>Created with sketchtool.</desc>
    <g id="Page-1" stroke="none" stroke-width="1" fill="none" fill-rule="evenodd">
        <g id="Create-event" transform="translate(-172.000000, -174.000000)" fill="#14213D" fill-rule="nonzero">
            <g id="Group" transform="translate(140.000000, 174.000000)">
                <path d="M52,0 C54.3694174,0 56.4982479,1.00432339 57.9631076,2.60017095 L58.6666667,2.6 C61.6121853,2.6 64,4.9281193 64,7.8 L64,20.8 C64,23.6718807 61.6121853,26 58.6666667,26 L37.3333333,26 C34.3878147,26 32,23.6718807 32,20.8 L32,7.8 C32,4.9281193 34.3878147,2.6 37.3333333,2.6 L38.0368924,2.60017095 C39.5017521,1.00432339 41.6305826,0 44,0 L52,0 Z M52,2 L44,2 C42.2572871,2 40.6422914,2.71938797 39.5102808,3.95262301 L38.9156878,4.60038454 L37.3333333,4.6 C35.4812103,4.6 34,6.04418003 34,7.8 L34,20.8 C34,22.55582 35.4812103,24 37.3333333,24 L58.6666667,24 C60.5187897,24 62,22.55582 62,20.8 L62,7.8 C62,6.04418003 60.5187897,4.6 58.6671526,4.59999994 L57.0843122,4.60038454 L56.4897192,3.95262301 C55.3577086,2.71938797 53.7427129,2 52,2 Z M48,9 C48.5522847,9 49,9.44771525 49,10 L49,13 L52,13 C52.5522847,13 53,13.4477153 53,14 C53,14.5522847 52.5522847,15 52,15 L49,15 L49,18 C49,18.5522847 48.5522847,19 48,19 C47.4477153,19 47,18.5522847 47,18 L47,14.999 L44,15 C43.4477153,15 43,14.5522847 43,14 C43,13.4477153 43.4477153,13 44,13 L47,12.999 L47,10 C47,9.44771525 47.4477153,9 48,9 Z M58,8 C58.5522847,8 59,8.44771525 59,9 C59,9.55228475 58.5522847,10 58,10 C57.4477153,10 57,9.55228475 57,9 C57,8.44771525 57.4477153,8 58,8 Z" id="Combined-Shape"></path>
            </g>
        </g>
    </g>
</svg>